<mxfile host="Electron" agent="Mozilla/5.0 (Windows NT 10.0; Win64; x64) AppleWebKit/537.36 (KHTML, like Gecko) draw.io/22.0.2 Chrome/114.0.5735.289 Electron/25.8.4 Safari/537.36" modified="2025-03-12T17:02:33.546Z" etag="m_AJlxaUPokUdUqdkSfo" version="22.0.2" type="device">
  <diagram name="Página-1" id="fV-J__cZfQo93oOP77fv">
    <mxGraphModel dx="2089" dy="1761" grid="1" gridSize="10" guides="1" tooltips="1" connect="1" arrows="1" fold="1" page="1" pageScale="1" pageWidth="827" pageHeight="1169" background="#FFFFFF" math="0" shadow="0">
      <root>
        <mxCell id="0" />
        <mxCell id="1" parent="0" />
        <mxCell id="uSXimBow2SyvMB53U5gD-1" value="Tipo&amp;nbsp;&lt;br&gt;Vehículo" style="rounded=0;whiteSpace=wrap;html=1;fillColor=#D4E9FF;" parent="1" vertex="1">
          <mxGeometry x="251" y="240" width="120" height="60" as="geometry" />
        </mxCell>
        <mxCell id="uSXimBow2SyvMB53U5gD-2" value="Equipamientos&amp;nbsp;&lt;br&gt;y/o seguros" style="rounded=0;whiteSpace=wrap;html=1;fillColor=#D4E9FF" parent="1" vertex="1">
          <mxGeometry x="251" y="100" width="120" height="60" as="geometry" />
        </mxCell>
        <mxCell id="uSXimBow2SyvMB53U5gD-3" value="Contrato" style="rounded=0;whiteSpace=wrap;html=1;fillColor=#D4E9FF" parent="1" vertex="1">
          <mxGeometry x="620" y="-30" width="120" height="60" as="geometry" />
        </mxCell>
        <mxCell id="uSXimBow2SyvMB53U5gD-4" value="Cliente" style="rounded=0;whiteSpace=wrap;html=1;fillColor=#D4E9FF;" parent="1" vertex="1">
          <mxGeometry x="-120" y="-30" width="120" height="60" as="geometry" />
        </mxCell>
        <mxCell id="uSXimBow2SyvMB53U5gD-5" value="Empleado" style="rounded=0;whiteSpace=wrap;html=1;fillColor=#D4E9FF;" parent="1" vertex="1">
          <mxGeometry x="100" y="-260" width="120" height="60" as="geometry" />
        </mxCell>
        <mxCell id="uSXimBow2SyvMB53U5gD-6" value="Pago" style="rounded=0;whiteSpace=wrap;html=1;fillColor=#D4E9FF;" parent="1" vertex="1">
          <mxGeometry x="700" y="-260" width="120" height="60" as="geometry" />
        </mxCell>
        <mxCell id="uSXimBow2SyvMB53U5gD-7" value="Encuesta" style="rounded=0;whiteSpace=wrap;html=1;fillColor=#D4E9FF" parent="1" vertex="1">
          <mxGeometry x="558.75" y="-260" width="120" height="60" as="geometry" />
        </mxCell>
        <mxCell id="uSXimBow2SyvMB53U5gD-16" value="Fecha_inicio" style="ellipse;whiteSpace=wrap;html=1;" parent="1" vertex="1">
          <mxGeometry x="810" y="-40" width="80" height="20" as="geometry" />
        </mxCell>
        <mxCell id="uSXimBow2SyvMB53U5gD-21" value="Precio" style="ellipse;whiteSpace=wrap;html=1;" parent="1" vertex="1">
          <mxGeometry x="840" y="35" width="60" height="20" as="geometry" />
        </mxCell>
        <mxCell id="uSXimBow2SyvMB53U5gD-22" value="&lt;div&gt;Duración&lt;/div&gt;" style="ellipse;whiteSpace=wrap;html=1;" parent="1" vertex="1">
          <mxGeometry x="817.5" width="65" height="20" as="geometry" />
        </mxCell>
        <mxCell id="uSXimBow2SyvMB53U5gD-23" value="&lt;div&gt;Comentarios&lt;/div&gt;" style="ellipse;whiteSpace=wrap;html=1;" parent="1" vertex="1">
          <mxGeometry x="810" y="60" width="80" height="20" as="geometry" />
        </mxCell>
        <mxCell id="uSXimBow2SyvMB53U5gD-25" value="Fecha_pago" style="ellipse;whiteSpace=wrap;html=1;" parent="1" vertex="1">
          <mxGeometry x="840" y="-240" width="80" height="20" as="geometry" />
        </mxCell>
        <mxCell id="uSXimBow2SyvMB53U5gD-26" value="&lt;div&gt;Fecha_fin&lt;/div&gt;" style="ellipse;whiteSpace=wrap;html=1;" parent="1" vertex="1">
          <mxGeometry x="850" y="-20" width="70" height="20" as="geometry" />
        </mxCell>
        <mxCell id="uSXimBow2SyvMB53U5gD-27" value="&lt;u&gt;Id_contrato&lt;/u&gt;" style="ellipse;whiteSpace=wrap;html=1;" parent="1" vertex="1">
          <mxGeometry x="790" y="-70" width="80" height="20" as="geometry" />
        </mxCell>
        <mxCell id="uSXimBow2SyvMB53U5gD-28" value="" style="endArrow=none;html=1;rounded=0;exitX=1;exitY=0.5;exitDx=0;exitDy=0;entryX=0;entryY=0.5;entryDx=0;entryDy=0;" parent="1" source="uSXimBow2SyvMB53U5gD-3" target="uSXimBow2SyvMB53U5gD-22" edge="1">
          <mxGeometry width="50" height="50" relative="1" as="geometry">
            <mxPoint x="790" y="-40" as="sourcePoint" />
            <mxPoint x="894.6566632198314" y="22.793997931898957" as="targetPoint" />
          </mxGeometry>
        </mxCell>
        <mxCell id="uSXimBow2SyvMB53U5gD-29" value="" style="endArrow=none;html=1;rounded=0;entryX=1;entryY=0.5;entryDx=0;entryDy=0;exitX=0;exitY=1;exitDx=0;exitDy=0;" parent="1" source="uSXimBow2SyvMB53U5gD-27" target="uSXimBow2SyvMB53U5gD-3" edge="1">
          <mxGeometry width="50" height="50" relative="1" as="geometry">
            <mxPoint x="335" y="170" as="sourcePoint" />
            <mxPoint x="440" y="148" as="targetPoint" />
          </mxGeometry>
        </mxCell>
        <mxCell id="uSXimBow2SyvMB53U5gD-30" value="" style="endArrow=none;html=1;rounded=0;entryX=0;entryY=0.5;entryDx=0;entryDy=0;exitX=1;exitY=0.5;exitDx=0;exitDy=0;" parent="1" source="uSXimBow2SyvMB53U5gD-3" target="uSXimBow2SyvMB53U5gD-26" edge="1">
          <mxGeometry width="50" height="50" relative="1" as="geometry">
            <mxPoint x="415" y="140" as="sourcePoint" />
            <mxPoint x="465" y="90" as="targetPoint" />
          </mxGeometry>
        </mxCell>
        <mxCell id="uSXimBow2SyvMB53U5gD-31" value="" style="endArrow=none;html=1;rounded=0;entryX=1;entryY=0.5;entryDx=0;entryDy=0;exitX=0;exitY=0.5;exitDx=0;exitDy=0;" parent="1" source="uSXimBow2SyvMB53U5gD-16" target="uSXimBow2SyvMB53U5gD-3" edge="1">
          <mxGeometry width="50" height="50" relative="1" as="geometry">
            <mxPoint x="389" y="140" as="sourcePoint" />
            <mxPoint x="439" y="90" as="targetPoint" />
          </mxGeometry>
        </mxCell>
        <mxCell id="uSXimBow2SyvMB53U5gD-32" value="" style="endArrow=none;html=1;rounded=0;entryX=0;entryY=0.5;entryDx=0;entryDy=0;exitX=1;exitY=0.5;exitDx=0;exitDy=0;" parent="1" source="uSXimBow2SyvMB53U5gD-3" target="uSXimBow2SyvMB53U5gD-23" edge="1">
          <mxGeometry width="50" height="50" relative="1" as="geometry">
            <mxPoint x="770" y="120" as="sourcePoint" />
            <mxPoint x="475" y="104" as="targetPoint" />
          </mxGeometry>
        </mxCell>
        <mxCell id="uSXimBow2SyvMB53U5gD-33" value="" style="endArrow=none;html=1;rounded=0;entryX=1;entryY=0;entryDx=0;entryDy=0;exitX=0;exitY=0.5;exitDx=0;exitDy=0;" parent="1" source="uSXimBow2SyvMB53U5gD-7" target="uSXimBow2SyvMB53U5gD-76" edge="1">
          <mxGeometry width="50" height="50" relative="1" as="geometry">
            <mxPoint x="340" y="110" as="sourcePoint" />
            <mxPoint x="290" y="535" as="targetPoint" />
          </mxGeometry>
        </mxCell>
        <mxCell id="uSXimBow2SyvMB53U5gD-34" value="" style="endArrow=none;html=1;rounded=0;exitX=1;exitY=0.5;exitDx=0;exitDy=0;" parent="1" source="uSXimBow2SyvMB53U5gD-3" target="uSXimBow2SyvMB53U5gD-21" edge="1">
          <mxGeometry width="50" height="50" relative="1" as="geometry">
            <mxPoint x="770" y="120" as="sourcePoint" />
            <mxPoint x="630" y="110" as="targetPoint" />
          </mxGeometry>
        </mxCell>
        <mxCell id="uSXimBow2SyvMB53U5gD-35" value="&lt;u&gt;Id_pago&lt;/u&gt;" style="ellipse;whiteSpace=wrap;html=1;" parent="1" vertex="1">
          <mxGeometry x="840" y="-270" width="77.5" height="20" as="geometry" />
        </mxCell>
        <mxCell id="uSXimBow2SyvMB53U5gD-36" value="Estado_pago" style="ellipse;whiteSpace=wrap;html=1;" parent="1" vertex="1">
          <mxGeometry x="840" y="-185" width="80" height="20" as="geometry" />
        </mxCell>
        <mxCell id="uSXimBow2SyvMB53U5gD-37" value="Precio_pagado" style="ellipse;whiteSpace=wrap;html=1;" parent="1" vertex="1">
          <mxGeometry x="835" y="-210" width="90" height="20" as="geometry" />
        </mxCell>
        <mxCell id="uSXimBow2SyvMB53U5gD-38" value="" style="endArrow=none;html=1;rounded=0;entryX=0;entryY=0;entryDx=0;entryDy=0;exitX=1;exitY=0.5;exitDx=0;exitDy=0;" parent="1" source="uSXimBow2SyvMB53U5gD-6" target="uSXimBow2SyvMB53U5gD-25" edge="1">
          <mxGeometry width="50" height="50" relative="1" as="geometry">
            <mxPoint x="540" y="210" as="sourcePoint" />
            <mxPoint x="590" y="160" as="targetPoint" />
          </mxGeometry>
        </mxCell>
        <mxCell id="uSXimBow2SyvMB53U5gD-39" value="" style="endArrow=none;html=1;rounded=0;entryX=0;entryY=1;entryDx=0;entryDy=0;exitX=1;exitY=0.5;exitDx=0;exitDy=0;" parent="1" source="uSXimBow2SyvMB53U5gD-6" target="uSXimBow2SyvMB53U5gD-35" edge="1">
          <mxGeometry width="50" height="50" relative="1" as="geometry">
            <mxPoint x="575" y="215" as="sourcePoint" />
            <mxPoint x="625" y="165" as="targetPoint" />
          </mxGeometry>
        </mxCell>
        <mxCell id="uSXimBow2SyvMB53U5gD-40" value="" style="endArrow=none;html=1;rounded=0;exitX=1;exitY=0.5;exitDx=0;exitDy=0;entryX=0;entryY=0.5;entryDx=0;entryDy=0;" parent="1" source="uSXimBow2SyvMB53U5gD-6" target="uSXimBow2SyvMB53U5gD-36" edge="1">
          <mxGeometry width="50" height="50" relative="1" as="geometry">
            <mxPoint x="730" y="300" as="sourcePoint" />
            <mxPoint x="840" y="-180" as="targetPoint" />
          </mxGeometry>
        </mxCell>
        <mxCell id="uSXimBow2SyvMB53U5gD-41" value="" style="endArrow=none;html=1;rounded=0;entryX=0.244;entryY=0.08;entryDx=0;entryDy=0;entryPerimeter=0;" parent="1" target="uSXimBow2SyvMB53U5gD-37" edge="1">
          <mxGeometry width="50" height="50" relative="1" as="geometry">
            <mxPoint x="820" y="-230" as="sourcePoint" />
            <mxPoint x="800" y="195" as="targetPoint" />
          </mxGeometry>
        </mxCell>
        <mxCell id="uSXimBow2SyvMB53U5gD-42" value="" style="endArrow=none;html=1;rounded=0;entryX=0;entryY=0.5;entryDx=0;entryDy=0;exitX=0.5;exitY=0;exitDx=0;exitDy=0;" parent="1" source="uSXimBow2SyvMB53U5gD-2" target="uSXimBow2SyvMB53U5gD-43" edge="1">
          <mxGeometry width="50" height="50" relative="1" as="geometry">
            <mxPoint x="720" y="390" as="sourcePoint" />
            <mxPoint x="750" y="410" as="targetPoint" />
          </mxGeometry>
        </mxCell>
        <mxCell id="uSXimBow2SyvMB53U5gD-43" value="Descripción" style="ellipse;whiteSpace=wrap;html=1;" parent="1" vertex="1">
          <mxGeometry x="300" y="30" width="70" height="20" as="geometry" />
        </mxCell>
        <mxCell id="uSXimBow2SyvMB53U5gD-44" value="Nombre" style="ellipse;whiteSpace=wrap;html=1;" parent="1" vertex="1">
          <mxGeometry x="247" y="10" width="63" height="20" as="geometry" />
        </mxCell>
        <mxCell id="uSXimBow2SyvMB53U5gD-45" value="&lt;u&gt;Id_producto&lt;/u&gt;" style="ellipse;whiteSpace=wrap;html=1;" parent="1" vertex="1">
          <mxGeometry x="194" y="40" width="80" height="30" as="geometry" />
        </mxCell>
        <mxCell id="uSXimBow2SyvMB53U5gD-46" value="" style="endArrow=none;html=1;rounded=0;exitX=0.5;exitY=0;exitDx=0;exitDy=0;" parent="1" target="uSXimBow2SyvMB53U5gD-45" edge="1" source="uSXimBow2SyvMB53U5gD-2">
          <mxGeometry width="50" height="50" relative="1" as="geometry">
            <mxPoint x="910" y="240" as="sourcePoint" />
            <mxPoint x="730" y="390" as="targetPoint" />
          </mxGeometry>
        </mxCell>
        <mxCell id="uSXimBow2SyvMB53U5gD-47" value="" style="endArrow=none;html=1;rounded=0;entryX=0.26;entryY=0.88;entryDx=0;entryDy=0;exitX=0.5;exitY=0;exitDx=0;exitDy=0;entryPerimeter=0;" parent="1" source="uSXimBow2SyvMB53U5gD-2" target="uSXimBow2SyvMB53U5gD-44" edge="1">
          <mxGeometry width="50" height="50" relative="1" as="geometry">
            <mxPoint x="920" y="260" as="sourcePoint" />
            <mxPoint x="730" y="440" as="targetPoint" />
          </mxGeometry>
        </mxCell>
        <mxCell id="uSXimBow2SyvMB53U5gD-48" value="" style="endArrow=none;html=1;rounded=0;entryX=0;entryY=1;entryDx=0;entryDy=0;exitX=0.5;exitY=0;exitDx=0;exitDy=0;" parent="1" source="uSXimBow2SyvMB53U5gD-2" target="uSXimBow2SyvMB53U5gD-49" edge="1">
          <mxGeometry width="50" height="50" relative="1" as="geometry">
            <mxPoint x="730" y="440" as="sourcePoint" />
            <mxPoint x="780" y="390" as="targetPoint" />
          </mxGeometry>
        </mxCell>
        <mxCell id="uSXimBow2SyvMB53U5gD-49" value="Precio_día" style="ellipse;whiteSpace=wrap;html=1;" parent="1" vertex="1">
          <mxGeometry x="379" y="30" width="70" height="20" as="geometry" />
        </mxCell>
        <mxCell id="uSXimBow2SyvMB53U5gD-50" value="E-mail" style="ellipse;whiteSpace=wrap;html=1;" parent="1" vertex="1">
          <mxGeometry x="-225" y="60" width="75" height="20" as="geometry" />
        </mxCell>
        <mxCell id="uSXimBow2SyvMB53U5gD-51" value="Dirección" style="ellipse;whiteSpace=wrap;html=1;" parent="1" vertex="1">
          <mxGeometry x="-265" y="30" width="65" height="20" as="geometry" />
        </mxCell>
        <mxCell id="uSXimBow2SyvMB53U5gD-52" value="Dni" style="ellipse;whiteSpace=wrap;html=1;" parent="1" vertex="1">
          <mxGeometry x="-265" width="55" height="20" as="geometry" />
        </mxCell>
        <mxCell id="uSXimBow2SyvMB53U5gD-53" value="&lt;u&gt;Id_cliente&lt;/u&gt;" style="ellipse;whiteSpace=wrap;html=1;" parent="1" vertex="1">
          <mxGeometry x="-210" y="-55" width="67.5" height="20" as="geometry" />
        </mxCell>
        <mxCell id="uSXimBow2SyvMB53U5gD-55" value="NombreApellidos" style="ellipse;whiteSpace=wrap;html=1;" parent="1" vertex="1">
          <mxGeometry x="-232.5" y="-30" width="90" height="30" as="geometry" />
        </mxCell>
        <mxCell id="uSXimBow2SyvMB53U5gD-58" value="" style="endArrow=none;html=1;rounded=0;entryX=0;entryY=0.5;entryDx=0;entryDy=0;" parent="1" target="uSXimBow2SyvMB53U5gD-4" edge="1">
          <mxGeometry width="50" height="50" relative="1" as="geometry">
            <mxPoint x="-140" y="-10" as="sourcePoint" />
            <mxPoint x="650" y="590" as="targetPoint" />
          </mxGeometry>
        </mxCell>
        <mxCell id="uSXimBow2SyvMB53U5gD-59" value="" style="endArrow=none;html=1;rounded=0;entryX=0;entryY=0.5;entryDx=0;entryDy=0;exitX=0.5;exitY=0;exitDx=0;exitDy=0;" parent="1" source="uSXimBow2SyvMB53U5gD-51" target="uSXimBow2SyvMB53U5gD-4" edge="1">
          <mxGeometry width="50" height="50" relative="1" as="geometry">
            <mxPoint x="550" y="635" as="sourcePoint" />
            <mxPoint x="600" y="585" as="targetPoint" />
          </mxGeometry>
        </mxCell>
        <mxCell id="uSXimBow2SyvMB53U5gD-60" value="" style="endArrow=none;html=1;rounded=0;exitX=1;exitY=0;exitDx=0;exitDy=0;" parent="1" source="uSXimBow2SyvMB53U5gD-52" edge="1">
          <mxGeometry width="50" height="50" relative="1" as="geometry">
            <mxPoint x="570" y="540" as="sourcePoint" />
            <mxPoint x="-120" as="targetPoint" />
          </mxGeometry>
        </mxCell>
        <mxCell id="uSXimBow2SyvMB53U5gD-61" value="" style="endArrow=none;html=1;rounded=0;entryX=0;entryY=0.5;entryDx=0;entryDy=0;exitX=1;exitY=1;exitDx=0;exitDy=0;" parent="1" source="uSXimBow2SyvMB53U5gD-53" target="uSXimBow2SyvMB53U5gD-4" edge="1">
          <mxGeometry width="50" height="50" relative="1" as="geometry">
            <mxPoint x="-140" y="-45" as="sourcePoint" />
            <mxPoint x="30" y="560" as="targetPoint" />
          </mxGeometry>
        </mxCell>
        <mxCell id="uSXimBow2SyvMB53U5gD-62" value="" style="endArrow=none;html=1;rounded=0;exitX=0.5;exitY=0;exitDx=0;exitDy=0;" parent="1" source="uSXimBow2SyvMB53U5gD-50" edge="1">
          <mxGeometry width="50" height="50" relative="1" as="geometry">
            <mxPoint x="150" y="670" as="sourcePoint" />
            <mxPoint x="-120" as="targetPoint" />
          </mxGeometry>
        </mxCell>
        <mxCell id="uSXimBow2SyvMB53U5gD-63" value="Teléfono" style="ellipse;whiteSpace=wrap;html=1;" parent="1" vertex="1">
          <mxGeometry x="-282.5" y="55" width="50" height="20" as="geometry" />
        </mxCell>
        <mxCell id="uSXimBow2SyvMB53U5gD-64" value="" style="endArrow=none;html=1;rounded=0;exitX=1;exitY=0.5;exitDx=0;exitDy=0;" parent="1" source="uSXimBow2SyvMB53U5gD-63" edge="1">
          <mxGeometry width="50" height="50" relative="1" as="geometry">
            <mxPoint x="230" y="690" as="sourcePoint" />
            <mxPoint x="-120" as="targetPoint" />
          </mxGeometry>
        </mxCell>
        <mxCell id="uSXimBow2SyvMB53U5gD-65" value="&lt;div&gt;Estado&lt;/div&gt;" style="ellipse;whiteSpace=wrap;html=1;" parent="1" vertex="1">
          <mxGeometry x="703" y="350" width="60" height="20" as="geometry" />
        </mxCell>
        <mxCell id="uSXimBow2SyvMB53U5gD-66" value="Matrícula" style="ellipse;whiteSpace=wrap;html=1;" parent="1" vertex="1">
          <mxGeometry x="590" y="360" width="70" height="20" as="geometry" />
        </mxCell>
        <mxCell id="uSXimBow2SyvMB53U5gD-67" value="&lt;div&gt;Modelo&lt;/div&gt;" style="ellipse;whiteSpace=wrap;html=1;" parent="1" vertex="1">
          <mxGeometry x="650" y="375" width="60" height="20" as="geometry" />
        </mxCell>
        <mxCell id="uSXimBow2SyvMB53U5gD-68" value="&lt;u&gt;Id_vehículo&lt;/u&gt;" style="ellipse;whiteSpace=wrap;html=1;" parent="1" vertex="1">
          <mxGeometry x="552.5" y="325" width="82.5" height="25" as="geometry" />
        </mxCell>
        <mxCell id="uSXimBow2SyvMB53U5gD-69" value="Precio día" style="ellipse;whiteSpace=wrap;html=1;" parent="1" vertex="1">
          <mxGeometry x="720" y="330" width="70" height="15" as="geometry" />
        </mxCell>
        <mxCell id="uSXimBow2SyvMB53U5gD-70" value="" style="endArrow=none;html=1;rounded=0;entryX=1;entryY=0;entryDx=0;entryDy=0;exitX=0.5;exitY=1;exitDx=0;exitDy=0;" parent="1" source="lZ2ELk1dQo8QPDQYmGzR-3" target="uSXimBow2SyvMB53U5gD-66" edge="1">
          <mxGeometry width="50" height="50" relative="1" as="geometry">
            <mxPoint x="340" y="330" as="sourcePoint" />
            <mxPoint x="280" y="640" as="targetPoint" />
          </mxGeometry>
        </mxCell>
        <mxCell id="uSXimBow2SyvMB53U5gD-71" value="" style="endArrow=none;html=1;rounded=0;entryX=0.5;entryY=1;entryDx=0;entryDy=0;exitX=0.784;exitY=0.144;exitDx=0;exitDy=0;exitPerimeter=0;" parent="1" source="uSXimBow2SyvMB53U5gD-68" target="lZ2ELk1dQo8QPDQYmGzR-3" edge="1">
          <mxGeometry width="50" height="50" relative="1" as="geometry">
            <mxPoint x="140" y="490" as="sourcePoint" />
            <mxPoint x="190" y="440" as="targetPoint" />
          </mxGeometry>
        </mxCell>
        <mxCell id="uSXimBow2SyvMB53U5gD-72" value="" style="endArrow=none;html=1;rounded=0;entryX=0.5;entryY=0;entryDx=0;entryDy=0;exitX=0.5;exitY=1;exitDx=0;exitDy=0;" parent="1" source="lZ2ELk1dQo8QPDQYmGzR-3" target="uSXimBow2SyvMB53U5gD-67" edge="1">
          <mxGeometry width="50" height="50" relative="1" as="geometry">
            <mxPoint x="340" y="330" as="sourcePoint" />
            <mxPoint x="260" y="545" as="targetPoint" />
          </mxGeometry>
        </mxCell>
        <mxCell id="uSXimBow2SyvMB53U5gD-73" value="" style="endArrow=none;html=1;rounded=0;exitX=0.5;exitY=1;exitDx=0;exitDy=0;entryX=0.323;entryY=0.115;entryDx=0;entryDy=0;entryPerimeter=0;" parent="1" source="lZ2ELk1dQo8QPDQYmGzR-3" target="uSXimBow2SyvMB53U5gD-65" edge="1">
          <mxGeometry width="50" height="50" relative="1" as="geometry">
            <mxPoint x="10" y="700" as="sourcePoint" />
            <mxPoint x="380" y="290" as="targetPoint" />
          </mxGeometry>
        </mxCell>
        <mxCell id="uSXimBow2SyvMB53U5gD-74" value="" style="endArrow=none;html=1;rounded=0;exitX=0.5;exitY=1;exitDx=0;exitDy=0;entryX=0.249;entryY=0;entryDx=0;entryDy=0;entryPerimeter=0;" parent="1" source="lZ2ELk1dQo8QPDQYmGzR-3" target="uSXimBow2SyvMB53U5gD-69" edge="1">
          <mxGeometry width="50" height="50" relative="1" as="geometry">
            <mxPoint x="670" y="330" as="sourcePoint" />
            <mxPoint x="740" y="450" as="targetPoint" />
          </mxGeometry>
        </mxCell>
        <mxCell id="uSXimBow2SyvMB53U5gD-76" value="Comentarios" style="ellipse;whiteSpace=wrap;html=1;" parent="1" vertex="1">
          <mxGeometry x="434" y="-180" width="80" height="20" as="geometry" />
        </mxCell>
        <mxCell id="uSXimBow2SyvMB53U5gD-77" value="&lt;u&gt;Id_encuesta&lt;/u&gt;" style="ellipse;whiteSpace=wrap;html=1;" parent="1" vertex="1">
          <mxGeometry x="429" y="-270" width="87.5" height="20" as="geometry" />
        </mxCell>
        <mxCell id="uSXimBow2SyvMB53U5gD-78" value="Puntuación" style="ellipse;whiteSpace=wrap;html=1;" parent="1" vertex="1">
          <mxGeometry x="431.5" y="-210" width="85" height="20" as="geometry" />
        </mxCell>
        <mxCell id="uSXimBow2SyvMB53U5gD-79" value="Fecha envío" style="ellipse;whiteSpace=wrap;html=1;" parent="1" vertex="1">
          <mxGeometry x="431.5" y="-240" width="90" height="20" as="geometry" />
        </mxCell>
        <mxCell id="uSXimBow2SyvMB53U5gD-80" value="" style="endArrow=none;html=1;rounded=0;entryX=1;entryY=0.5;entryDx=0;entryDy=0;exitX=0;exitY=0.5;exitDx=0;exitDy=0;" parent="1" target="uSXimBow2SyvMB53U5gD-79" edge="1" source="uSXimBow2SyvMB53U5gD-7">
          <mxGeometry width="50" height="50" relative="1" as="geometry">
            <mxPoint x="340" y="80" as="sourcePoint" />
            <mxPoint x="350" y="580" as="targetPoint" />
          </mxGeometry>
        </mxCell>
        <mxCell id="uSXimBow2SyvMB53U5gD-81" value="" style="endArrow=none;html=1;rounded=0;entryX=1;entryY=0;entryDx=0;entryDy=0;exitX=0;exitY=0.5;exitDx=0;exitDy=0;" parent="1" source="uSXimBow2SyvMB53U5gD-7" target="uSXimBow2SyvMB53U5gD-78" edge="1">
          <mxGeometry width="50" height="50" relative="1" as="geometry">
            <mxPoint x="240" y="660" as="sourcePoint" />
            <mxPoint x="290" y="610" as="targetPoint" />
          </mxGeometry>
        </mxCell>
        <mxCell id="uSXimBow2SyvMB53U5gD-82" value="" style="endArrow=none;html=1;rounded=0;entryX=1;entryY=0.5;entryDx=0;entryDy=0;exitX=0;exitY=0.5;exitDx=0;exitDy=0;" parent="1" source="uSXimBow2SyvMB53U5gD-7" target="uSXimBow2SyvMB53U5gD-77" edge="1">
          <mxGeometry width="50" height="50" relative="1" as="geometry">
            <mxPoint x="390" y="610" as="sourcePoint" />
            <mxPoint x="440" y="560" as="targetPoint" />
          </mxGeometry>
        </mxCell>
        <mxCell id="uSXimBow2SyvMB53U5gD-83" value="Atiende" style="rhombus;whiteSpace=wrap;html=1;" parent="1" vertex="1">
          <mxGeometry x="-100" y="-160" width="80" height="80" as="geometry" />
        </mxCell>
        <mxCell id="uSXimBow2SyvMB53U5gD-88" value="" style="endArrow=none;html=1;rounded=0;entryX=0;entryY=0.5;entryDx=0;entryDy=0;exitX=1;exitY=0.5;exitDx=0;exitDy=0;" parent="1" source="ELVU8j1Wu9aHbOI0-rem-1" target="uSXimBow2SyvMB53U5gD-1" edge="1">
          <mxGeometry width="50" height="50" relative="1" as="geometry">
            <mxPoint x="365" y="440" as="sourcePoint" />
            <mxPoint x="190" y="440" as="targetPoint" />
          </mxGeometry>
        </mxCell>
        <mxCell id="ELVU8j1Wu9aHbOI0-rem-1" value="Elige" style="rhombus;whiteSpace=wrap;html=1;" parent="1" vertex="1">
          <mxGeometry x="109" y="230" width="85" height="80" as="geometry" />
        </mxCell>
        <mxCell id="ELVU8j1Wu9aHbOI0-rem-4" value="" style="endArrow=none;html=1;rounded=0;entryX=0;entryY=0.5;entryDx=0;entryDy=0;exitX=1;exitY=0.5;exitDx=0;exitDy=0;" parent="1" source="uSXimBow2SyvMB53U5gD-4" target="ELVU8j1Wu9aHbOI0-rem-1" edge="1">
          <mxGeometry width="50" height="50" relative="1" as="geometry">
            <mxPoint x="190" y="560" as="sourcePoint" />
            <mxPoint x="240" y="510" as="targetPoint" />
          </mxGeometry>
        </mxCell>
        <mxCell id="ELVU8j1Wu9aHbOI0-rem-6" value="Genera" style="rhombus;whiteSpace=wrap;html=1;" parent="1" vertex="1">
          <mxGeometry x="111.5" y="-40" width="80" height="80" as="geometry" />
        </mxCell>
        <mxCell id="ELVU8j1Wu9aHbOI0-rem-10" value="" style="endArrow=none;html=1;rounded=0;entryX=0;entryY=0.5;entryDx=0;entryDy=0;exitX=1;exitY=0.5;exitDx=0;exitDy=0;" parent="1" source="ELVU8j1Wu9aHbOI0-rem-6" target="uSXimBow2SyvMB53U5gD-3" edge="1">
          <mxGeometry width="50" height="50" relative="1" as="geometry">
            <mxPoint x="690" y="260" as="sourcePoint" />
            <mxPoint x="740" y="210" as="targetPoint" />
          </mxGeometry>
        </mxCell>
        <mxCell id="ELVU8j1Wu9aHbOI0-rem-12" value="Genera" style="rhombus;whiteSpace=wrap;html=1;" parent="1" vertex="1">
          <mxGeometry x="720" y="-160" width="80" height="80" as="geometry" />
        </mxCell>
        <mxCell id="ELVU8j1Wu9aHbOI0-rem-13" value="" style="endArrow=none;html=1;rounded=0;entryX=0.5;entryY=0;entryDx=0;entryDy=0;exitX=0.5;exitY=1;exitDx=0;exitDy=0;" parent="1" source="ELVU8j1Wu9aHbOI0-rem-12" target="uSXimBow2SyvMB53U5gD-3" edge="1">
          <mxGeometry width="50" height="50" relative="1" as="geometry">
            <mxPoint x="330" y="180" as="sourcePoint" />
            <mxPoint x="380" y="130" as="targetPoint" />
          </mxGeometry>
        </mxCell>
        <mxCell id="ELVU8j1Wu9aHbOI0-rem-14" value="" style="endArrow=none;html=1;rounded=0;exitX=0.5;exitY=1;exitDx=0;exitDy=0;" parent="1" source="uSXimBow2SyvMB53U5gD-6" target="ELVU8j1Wu9aHbOI0-rem-12" edge="1">
          <mxGeometry width="50" height="50" relative="1" as="geometry">
            <mxPoint x="280" y="210" as="sourcePoint" />
            <mxPoint x="330" y="160" as="targetPoint" />
          </mxGeometry>
        </mxCell>
        <mxCell id="ELVU8j1Wu9aHbOI0-rem-19" value="" style="endArrow=none;html=1;rounded=0;exitX=0.5;exitY=1;exitDx=0;exitDy=0;entryX=0.5;entryY=0;entryDx=0;entryDy=0;" parent="1" source="uSXimBow2SyvMB53U5gD-7" target="ELVU8j1Wu9aHbOI0-rem-62" edge="1">
          <mxGeometry width="50" height="50" relative="1" as="geometry">
            <mxPoint x="420" y="140" as="sourcePoint" />
            <mxPoint x="480" y="80" as="targetPoint" />
          </mxGeometry>
        </mxCell>
        <mxCell id="ELVU8j1Wu9aHbOI0-rem-31" value="Se añade" style="rhombus;whiteSpace=wrap;html=1;" parent="1" vertex="1">
          <mxGeometry x="635" y="90" width="85" height="80" as="geometry" />
        </mxCell>
        <mxCell id="ELVU8j1Wu9aHbOI0-rem-34" style="edgeStyle=orthogonalEdgeStyle;rounded=0;orthogonalLoop=1;jettySize=auto;html=1;exitX=0.5;exitY=1;exitDx=0;exitDy=0;" parent="1" source="uSXimBow2SyvMB53U5gD-63" target="uSXimBow2SyvMB53U5gD-63" edge="1">
          <mxGeometry relative="1" as="geometry" />
        </mxCell>
        <mxCell id="ELVU8j1Wu9aHbOI0-rem-35" value="1,1" style="text;html=1;strokeColor=none;fillColor=none;align=center;verticalAlign=middle;whiteSpace=wrap;rounded=0;" parent="1" vertex="1">
          <mxGeometry x="204" y="272.5" width="60" height="30" as="geometry" />
        </mxCell>
        <mxCell id="ELVU8j1Wu9aHbOI0-rem-36" value=",1,N" style="text;html=1;strokeColor=none;fillColor=none;align=center;verticalAlign=middle;whiteSpace=wrap;rounded=0;" parent="1" vertex="1">
          <mxGeometry x="-25" y="40" width="60" height="30" as="geometry" />
        </mxCell>
        <mxCell id="ELVU8j1Wu9aHbOI0-rem-37" value="&lt;b&gt;1:N&lt;/b&gt;" style="text;html=1;strokeColor=none;fillColor=none;align=center;verticalAlign=middle;whiteSpace=wrap;rounded=0;" parent="1" vertex="1">
          <mxGeometry x="-150" y="-135" width="60" height="30" as="geometry" />
        </mxCell>
        <mxCell id="ELVU8j1Wu9aHbOI0-rem-38" value="1,N" style="text;html=1;strokeColor=none;fillColor=none;align=center;verticalAlign=middle;whiteSpace=wrap;rounded=0;" parent="1" vertex="1">
          <mxGeometry x="49" y="-260" width="60" height="30" as="geometry" />
        </mxCell>
        <mxCell id="ELVU8j1Wu9aHbOI0-rem-39" value="&lt;b&gt;1:N&lt;/b&gt;" style="text;html=1;strokeColor=none;fillColor=none;align=center;verticalAlign=middle;whiteSpace=wrap;rounded=0;" parent="1" vertex="1">
          <mxGeometry x="121.5" y="200" width="60" height="30" as="geometry" />
        </mxCell>
        <mxCell id="ELVU8j1Wu9aHbOI0-rem-40" value="1,N" style="text;html=1;strokeColor=none;fillColor=none;align=center;verticalAlign=middle;whiteSpace=wrap;rounded=0;" parent="1" vertex="1">
          <mxGeometry x="700" y="-60" width="60" height="30" as="geometry" />
        </mxCell>
        <mxCell id="ELVU8j1Wu9aHbOI0-rem-41" value="1,1" style="text;html=1;strokeColor=none;fillColor=none;align=center;verticalAlign=middle;whiteSpace=wrap;rounded=0;" parent="1" vertex="1">
          <mxGeometry x="750" y="-200" width="60" height="30" as="geometry" />
        </mxCell>
        <mxCell id="ELVU8j1Wu9aHbOI0-rem-42" value="1,1" style="text;html=1;strokeColor=none;fillColor=none;align=center;verticalAlign=middle;whiteSpace=wrap;rounded=0;" parent="1" vertex="1">
          <mxGeometry x="560" y="-200" width="60" height="30" as="geometry" />
        </mxCell>
        <mxCell id="ELVU8j1Wu9aHbOI0-rem-48" value="" style="endArrow=none;html=1;rounded=0;entryX=0;entryY=0.5;entryDx=0;entryDy=0;exitX=0.5;exitY=0;exitDx=0;exitDy=0;" parent="1" source="uSXimBow2SyvMB53U5gD-83" target="uSXimBow2SyvMB53U5gD-5" edge="1">
          <mxGeometry width="50" height="50" relative="1" as="geometry">
            <mxPoint x="-180" y="220" as="sourcePoint" />
            <mxPoint x="-130" y="170" as="targetPoint" />
          </mxGeometry>
        </mxCell>
        <mxCell id="ELVU8j1Wu9aHbOI0-rem-49" value="" style="endArrow=none;html=1;rounded=0;entryX=0.5;entryY=1;entryDx=0;entryDy=0;exitX=0.5;exitY=0;exitDx=0;exitDy=0;" parent="1" source="uSXimBow2SyvMB53U5gD-4" target="uSXimBow2SyvMB53U5gD-83" edge="1">
          <mxGeometry width="50" height="50" relative="1" as="geometry">
            <mxPoint x="-290" y="310" as="sourcePoint" />
            <mxPoint x="-240" y="260" as="targetPoint" />
          </mxGeometry>
        </mxCell>
        <mxCell id="ELVU8j1Wu9aHbOI0-rem-50" value="E-mail" style="ellipse;whiteSpace=wrap;html=1;" parent="1" vertex="1">
          <mxGeometry x="274" y="-170" width="90" height="20" as="geometry" />
        </mxCell>
        <mxCell id="ELVU8j1Wu9aHbOI0-rem-51" value="Nombre completo" style="ellipse;whiteSpace=wrap;html=1;" parent="1" vertex="1">
          <mxGeometry x="274" y="-240" width="90" height="35" as="geometry" />
        </mxCell>
        <mxCell id="ELVU8j1Wu9aHbOI0-rem-52" value="&lt;u&gt;Id_empleado&lt;/u&gt;" style="ellipse;whiteSpace=wrap;html=1;" parent="1" vertex="1">
          <mxGeometry x="274" y="-270" width="90" height="20" as="geometry" />
        </mxCell>
        <mxCell id="ELVU8j1Wu9aHbOI0-rem-53" value="Sucursal" style="ellipse;whiteSpace=wrap;html=1;" parent="1" vertex="1">
          <mxGeometry x="280" y="-200" width="90" height="20" as="geometry" />
        </mxCell>
        <mxCell id="ELVU8j1Wu9aHbOI0-rem-54" value="" style="endArrow=none;html=1;rounded=0;entryX=0;entryY=0.5;entryDx=0;entryDy=0;exitX=1;exitY=0;exitDx=0;exitDy=0;" parent="1" source="uSXimBow2SyvMB53U5gD-4" target="ELVU8j1Wu9aHbOI0-rem-6" edge="1">
          <mxGeometry width="50" height="50" relative="1" as="geometry">
            <mxPoint y="360" as="sourcePoint" />
            <mxPoint x="100" y="240" as="targetPoint" />
          </mxGeometry>
        </mxCell>
        <mxCell id="ELVU8j1Wu9aHbOI0-rem-56" value="1,N" style="text;html=1;strokeColor=none;fillColor=none;align=center;verticalAlign=middle;whiteSpace=wrap;rounded=0;" parent="1" vertex="1">
          <mxGeometry x="-107.5" y="-60" width="60" height="30" as="geometry" />
        </mxCell>
        <mxCell id="ELVU8j1Wu9aHbOI0-rem-57" value="&lt;b&gt;1:N&lt;/b&gt;" style="text;html=1;strokeColor=none;fillColor=none;align=center;verticalAlign=middle;whiteSpace=wrap;rounded=0;" parent="1" vertex="1">
          <mxGeometry x="121.5" y="-65" width="60" height="30" as="geometry" />
        </mxCell>
        <mxCell id="ELVU8j1Wu9aHbOI0-rem-58" value="1,N" style="text;html=1;strokeColor=none;fillColor=none;align=center;verticalAlign=middle;whiteSpace=wrap;rounded=0;" parent="1" vertex="1">
          <mxGeometry x="-20" y="-50" width="60" height="30" as="geometry" />
        </mxCell>
        <mxCell id="ELVU8j1Wu9aHbOI0-rem-62" value="Genera" style="rhombus;whiteSpace=wrap;html=1;" parent="1" vertex="1">
          <mxGeometry x="580" y="-160" width="80" height="80" as="geometry" />
        </mxCell>
        <mxCell id="ELVU8j1Wu9aHbOI0-rem-63" value="" style="endArrow=none;html=1;rounded=0;entryX=0.5;entryY=0;entryDx=0;entryDy=0;exitX=0.5;exitY=1;exitDx=0;exitDy=0;" parent="1" source="ELVU8j1Wu9aHbOI0-rem-62" edge="1" target="uSXimBow2SyvMB53U5gD-3">
          <mxGeometry width="50" height="50" relative="1" as="geometry">
            <mxPoint x="620" y="-110" as="sourcePoint" />
            <mxPoint x="660" y="10" as="targetPoint" />
          </mxGeometry>
        </mxCell>
        <mxCell id="ELVU8j1Wu9aHbOI0-rem-64" value="" style="endArrow=none;html=1;rounded=0;entryX=0;entryY=0.5;entryDx=0;entryDy=0;exitX=1;exitY=0.5;exitDx=0;exitDy=0;" parent="1" target="ELVU8j1Wu9aHbOI0-rem-53" edge="1" source="uSXimBow2SyvMB53U5gD-5">
          <mxGeometry width="50" height="50" relative="1" as="geometry">
            <mxPoint x="-62" y="20" as="sourcePoint" />
            <mxPoint x="-290" y="185" as="targetPoint" />
          </mxGeometry>
        </mxCell>
        <mxCell id="ELVU8j1Wu9aHbOI0-rem-65" value="&lt;b&gt;1:1&lt;/b&gt;" style="text;html=1;strokeColor=none;fillColor=none;align=center;verticalAlign=middle;whiteSpace=wrap;rounded=0;" parent="1" vertex="1">
          <mxGeometry x="532.5" y="-135" width="60" height="30" as="geometry" />
        </mxCell>
        <mxCell id="ELVU8j1Wu9aHbOI0-rem-66" value="&lt;b&gt;1:N&lt;/b&gt;" style="text;html=1;strokeColor=none;fillColor=none;align=center;verticalAlign=middle;whiteSpace=wrap;rounded=0;" parent="1" vertex="1">
          <mxGeometry x="790" y="-135" width="60" height="30" as="geometry" />
        </mxCell>
        <mxCell id="ELVU8j1Wu9aHbOI0-rem-67" value="1,N" style="text;html=1;strokeColor=none;fillColor=none;align=center;verticalAlign=middle;whiteSpace=wrap;rounded=0;" parent="1" vertex="1">
          <mxGeometry x="570" y="-30" width="60" height="30" as="geometry" />
        </mxCell>
        <mxCell id="ELVU8j1Wu9aHbOI0-rem-68" value="1,1" style="text;html=1;strokeColor=none;fillColor=none;align=center;verticalAlign=middle;whiteSpace=wrap;rounded=0;" parent="1" vertex="1">
          <mxGeometry x="610" y="-60" width="60" height="30" as="geometry" />
        </mxCell>
        <mxCell id="ELVU8j1Wu9aHbOI0-rem-71" value="Rol" style="ellipse;whiteSpace=wrap;html=1;" parent="1" vertex="1">
          <mxGeometry x="274" y="-140" width="90" height="20" as="geometry" />
        </mxCell>
        <mxCell id="ELVU8j1Wu9aHbOI0-rem-72" value="" style="endArrow=none;html=1;rounded=0;entryX=0;entryY=0;entryDx=0;entryDy=0;exitX=1;exitY=0.5;exitDx=0;exitDy=0;" parent="1" source="uSXimBow2SyvMB53U5gD-5" target="ELVU8j1Wu9aHbOI0-rem-50" edge="1">
          <mxGeometry width="50" height="50" relative="1" as="geometry">
            <mxPoint x="-220" y="240" as="sourcePoint" />
            <mxPoint x="-170" y="190" as="targetPoint" />
          </mxGeometry>
        </mxCell>
        <mxCell id="ELVU8j1Wu9aHbOI0-rem-73" value="" style="endArrow=none;html=1;rounded=0;entryX=0;entryY=0.5;entryDx=0;entryDy=0;exitX=1;exitY=0.5;exitDx=0;exitDy=0;" parent="1" source="uSXimBow2SyvMB53U5gD-5" target="ELVU8j1Wu9aHbOI0-rem-71" edge="1">
          <mxGeometry width="50" height="50" relative="1" as="geometry">
            <mxPoint x="-210" y="330" as="sourcePoint" />
            <mxPoint x="-160" y="280" as="targetPoint" />
          </mxGeometry>
        </mxCell>
        <mxCell id="ELVU8j1Wu9aHbOI0-rem-74" value="" style="endArrow=none;html=1;rounded=0;entryX=0;entryY=0;entryDx=0;entryDy=0;exitX=1;exitY=0.5;exitDx=0;exitDy=0;" parent="1" source="uSXimBow2SyvMB53U5gD-5" target="ELVU8j1Wu9aHbOI0-rem-51" edge="1">
          <mxGeometry width="50" height="50" relative="1" as="geometry">
            <mxPoint x="-260" y="280" as="sourcePoint" />
            <mxPoint x="-210" y="230" as="targetPoint" />
          </mxGeometry>
        </mxCell>
        <mxCell id="ELVU8j1Wu9aHbOI0-rem-75" value="" style="endArrow=none;html=1;rounded=0;entryX=0;entryY=0.5;entryDx=0;entryDy=0;exitX=1;exitY=0.5;exitDx=0;exitDy=0;" parent="1" target="ELVU8j1Wu9aHbOI0-rem-52" edge="1" source="uSXimBow2SyvMB53U5gD-5">
          <mxGeometry width="50" height="50" relative="1" as="geometry">
            <mxPoint x="-60" y="20" as="sourcePoint" />
            <mxPoint x="-240" y="210" as="targetPoint" />
          </mxGeometry>
        </mxCell>
        <mxCell id="ELVU8j1Wu9aHbOI0-rem-76" value="Se añade" style="rhombus;whiteSpace=wrap;html=1;" parent="1" vertex="1">
          <mxGeometry x="452.5" y="90" width="80" height="80" as="geometry" />
        </mxCell>
        <mxCell id="ELVU8j1Wu9aHbOI0-rem-77" value="&lt;b&gt;N:M&lt;/b&gt;" style="text;html=1;strokeColor=none;fillColor=none;align=center;verticalAlign=middle;whiteSpace=wrap;rounded=0;" parent="1" vertex="1">
          <mxGeometry x="462.5" y="60" width="60" height="30" as="geometry" />
        </mxCell>
        <mxCell id="ELVU8j1Wu9aHbOI0-rem-78" value="" style="endArrow=none;html=1;rounded=0;entryX=0;entryY=0.5;entryDx=0;entryDy=0;exitX=1;exitY=0.5;exitDx=0;exitDy=0;" parent="1" source="uSXimBow2SyvMB53U5gD-2" target="ELVU8j1Wu9aHbOI0-rem-76" edge="1">
          <mxGeometry width="50" height="50" relative="1" as="geometry">
            <mxPoint x="510" y="240" as="sourcePoint" />
            <mxPoint x="560" y="190" as="targetPoint" />
          </mxGeometry>
        </mxCell>
        <mxCell id="ELVU8j1Wu9aHbOI0-rem-79" value="" style="endArrow=none;html=1;rounded=0;exitX=1;exitY=0.5;exitDx=0;exitDy=0;entryX=0.5;entryY=1;entryDx=0;entryDy=0;" parent="1" source="ELVU8j1Wu9aHbOI0-rem-76" edge="1" target="uSXimBow2SyvMB53U5gD-3">
          <mxGeometry width="50" height="50" relative="1" as="geometry">
            <mxPoint x="560" y="280" as="sourcePoint" />
            <mxPoint x="720" y="30" as="targetPoint" />
          </mxGeometry>
        </mxCell>
        <mxCell id="Ym_1mo_CpW5ReRRhhX3e-1" value="1,N" style="text;html=1;strokeColor=none;fillColor=none;align=center;verticalAlign=middle;whiteSpace=wrap;rounded=0;" parent="1" vertex="1">
          <mxGeometry x="600" y="30" width="60" height="30" as="geometry" />
        </mxCell>
        <mxCell id="Ym_1mo_CpW5ReRRhhX3e-2" value="N:1" style="text;html=1;strokeColor=none;fillColor=none;align=center;verticalAlign=middle;whiteSpace=wrap;rounded=0;" parent="1" vertex="1">
          <mxGeometry x="354" y="100" width="60" height="30" as="geometry" />
        </mxCell>
        <mxCell id="lZ2ELk1dQo8QPDQYmGzR-3" value="Vehículo" style="rounded=0;whiteSpace=wrap;html=1;fillColor=#D4E9FF;" parent="1" vertex="1">
          <mxGeometry x="617.5" y="240" width="120" height="60" as="geometry" />
        </mxCell>
        <mxCell id="lZ2ELk1dQo8QPDQYmGzR-4" value="Elige" style="rhombus;whiteSpace=wrap;html=1;" parent="1" vertex="1">
          <mxGeometry x="450" y="230" width="85" height="80" as="geometry" />
        </mxCell>
        <mxCell id="lZ2ELk1dQo8QPDQYmGzR-5" value="" style="endArrow=none;html=1;rounded=0;entryX=0;entryY=0.5;entryDx=0;entryDy=0;exitX=1;exitY=0.5;exitDx=0;exitDy=0;" parent="1" source="uSXimBow2SyvMB53U5gD-1" target="lZ2ELk1dQo8QPDQYmGzR-4" edge="1">
          <mxGeometry width="50" height="50" relative="1" as="geometry">
            <mxPoint x="340" y="390" as="sourcePoint" />
            <mxPoint x="220" y="450" as="targetPoint" />
          </mxGeometry>
        </mxCell>
        <mxCell id="lZ2ELk1dQo8QPDQYmGzR-6" value="" style="endArrow=none;html=1;rounded=0;exitX=1;exitY=0.5;exitDx=0;exitDy=0;entryX=0;entryY=0.5;entryDx=0;entryDy=0;" parent="1" source="lZ2ELk1dQo8QPDQYmGzR-4" edge="1" target="lZ2ELk1dQo8QPDQYmGzR-3">
          <mxGeometry width="50" height="50" relative="1" as="geometry">
            <mxPoint x="394" y="515" as="sourcePoint" />
            <mxPoint x="620" y="360" as="targetPoint" />
          </mxGeometry>
        </mxCell>
        <mxCell id="lZ2ELk1dQo8QPDQYmGzR-7" value="Monvolumen" style="ellipse;whiteSpace=wrap;html=1;" parent="1" vertex="1">
          <mxGeometry x="251" y="430" width="75" height="25" as="geometry" />
        </mxCell>
        <mxCell id="lZ2ELk1dQo8QPDQYmGzR-8" value="SUV" style="ellipse;whiteSpace=wrap;html=1;" parent="1" vertex="1">
          <mxGeometry x="204" y="415" width="60" height="20" as="geometry" />
        </mxCell>
        <mxCell id="lZ2ELk1dQo8QPDQYmGzR-9" value="Compacto" style="ellipse;whiteSpace=wrap;html=1;" parent="1" vertex="1">
          <mxGeometry x="170" y="390" width="70" height="20" as="geometry" />
        </mxCell>
        <mxCell id="lZ2ELk1dQo8QPDQYmGzR-10" value="Económico" style="ellipse;whiteSpace=wrap;html=1;" parent="1" vertex="1">
          <mxGeometry x="140" y="365" width="70" height="20" as="geometry" />
        </mxCell>
        <mxCell id="lZ2ELk1dQo8QPDQYmGzR-11" value="Furgoneta" style="ellipse;whiteSpace=wrap;html=1;" parent="1" vertex="1">
          <mxGeometry x="310" y="330" width="80" height="30" as="geometry" />
        </mxCell>
        <mxCell id="lZ2ELk1dQo8QPDQYmGzR-12" value="Coche" style="ellipse;whiteSpace=wrap;html=1;" parent="1" vertex="1">
          <mxGeometry x="220" y="330" width="80" height="30" as="geometry" />
        </mxCell>
        <mxCell id="lZ2ELk1dQo8QPDQYmGzR-15" value="Grupo 2" style="ellipse;whiteSpace=wrap;html=1;" parent="1" vertex="1">
          <mxGeometry x="405" y="380" width="65" height="25" as="geometry" />
        </mxCell>
        <mxCell id="lZ2ELk1dQo8QPDQYmGzR-16" value="Grupo 1" style="ellipse;whiteSpace=wrap;html=1;" parent="1" vertex="1">
          <mxGeometry x="410" y="355" width="60" height="20" as="geometry" />
        </mxCell>
        <mxCell id="lZ2ELk1dQo8QPDQYmGzR-17" value="Grupo 3" style="ellipse;whiteSpace=wrap;html=1;" parent="1" vertex="1">
          <mxGeometry x="374" y="410" width="60" height="25" as="geometry" />
        </mxCell>
        <mxCell id="lZ2ELk1dQo8QPDQYmGzR-18" value="" style="endArrow=none;html=1;rounded=0;entryX=0.5;entryY=1;entryDx=0;entryDy=0;exitX=0.387;exitY=0.128;exitDx=0;exitDy=0;exitPerimeter=0;" parent="1" source="lZ2ELk1dQo8QPDQYmGzR-7" target="lZ2ELk1dQo8QPDQYmGzR-12" edge="1">
          <mxGeometry width="50" height="50" relative="1" as="geometry">
            <mxPoint x="115" y="680" as="sourcePoint" />
            <mxPoint x="165" y="630" as="targetPoint" />
          </mxGeometry>
        </mxCell>
        <mxCell id="lZ2ELk1dQo8QPDQYmGzR-19" value="" style="endArrow=none;html=1;rounded=0;entryX=0;entryY=0.5;entryDx=0;entryDy=0;exitX=0.647;exitY=1.013;exitDx=0;exitDy=0;exitPerimeter=0;" parent="1" source="lZ2ELk1dQo8QPDQYmGzR-11" target="lZ2ELk1dQo8QPDQYmGzR-15" edge="1">
          <mxGeometry width="50" height="50" relative="1" as="geometry">
            <mxPoint x="125" y="690" as="sourcePoint" />
            <mxPoint x="175" y="640" as="targetPoint" />
          </mxGeometry>
        </mxCell>
        <mxCell id="lZ2ELk1dQo8QPDQYmGzR-20" value="" style="endArrow=none;html=1;rounded=0;entryX=0;entryY=0.5;entryDx=0;entryDy=0;exitX=0.647;exitY=0.96;exitDx=0;exitDy=0;exitPerimeter=0;" parent="1" source="lZ2ELk1dQo8QPDQYmGzR-11" target="lZ2ELk1dQo8QPDQYmGzR-16" edge="1">
          <mxGeometry width="50" height="50" relative="1" as="geometry">
            <mxPoint x="135" y="700" as="sourcePoint" />
            <mxPoint x="185" y="650" as="targetPoint" />
          </mxGeometry>
        </mxCell>
        <mxCell id="lZ2ELk1dQo8QPDQYmGzR-21" value="" style="endArrow=none;html=1;rounded=0;entryX=0.5;entryY=0;entryDx=0;entryDy=0;exitX=0.5;exitY=1;exitDx=0;exitDy=0;" parent="1" source="uSXimBow2SyvMB53U5gD-1" target="lZ2ELk1dQo8QPDQYmGzR-12" edge="1">
          <mxGeometry width="50" height="50" relative="1" as="geometry">
            <mxPoint x="145" y="710" as="sourcePoint" />
            <mxPoint x="195" y="660" as="targetPoint" />
          </mxGeometry>
        </mxCell>
        <mxCell id="lZ2ELk1dQo8QPDQYmGzR-22" value="" style="endArrow=none;html=1;rounded=0;entryX=0.423;entryY=0.063;entryDx=0;entryDy=0;entryPerimeter=0;exitX=0.5;exitY=1;exitDx=0;exitDy=0;" parent="1" source="uSXimBow2SyvMB53U5gD-1" target="lZ2ELk1dQo8QPDQYmGzR-11" edge="1">
          <mxGeometry width="50" height="50" relative="1" as="geometry">
            <mxPoint x="680" y="390" as="sourcePoint" />
            <mxPoint x="205" y="670" as="targetPoint" />
          </mxGeometry>
        </mxCell>
        <mxCell id="lZ2ELk1dQo8QPDQYmGzR-23" value="" style="endArrow=none;html=1;rounded=0;entryX=0;entryY=0;entryDx=0;entryDy=0;" parent="1" source="lZ2ELk1dQo8QPDQYmGzR-11" target="lZ2ELk1dQo8QPDQYmGzR-17" edge="1">
          <mxGeometry width="50" height="50" relative="1" as="geometry">
            <mxPoint x="590" y="460" as="sourcePoint" />
            <mxPoint x="175" y="640" as="targetPoint" />
          </mxGeometry>
        </mxCell>
        <mxCell id="lZ2ELk1dQo8QPDQYmGzR-24" value="" style="endArrow=none;html=1;rounded=0;entryX=0.5;entryY=1;entryDx=0;entryDy=0;" parent="1" source="lZ2ELk1dQo8QPDQYmGzR-8" target="lZ2ELk1dQo8QPDQYmGzR-12" edge="1">
          <mxGeometry width="50" height="50" relative="1" as="geometry">
            <mxPoint x="125" y="690" as="sourcePoint" />
            <mxPoint x="500" y="600" as="targetPoint" />
          </mxGeometry>
        </mxCell>
        <mxCell id="lZ2ELk1dQo8QPDQYmGzR-25" value="" style="endArrow=none;html=1;rounded=0;exitX=0.5;exitY=0;exitDx=0;exitDy=0;entryX=0.5;entryY=1;entryDx=0;entryDy=0;" parent="1" source="lZ2ELk1dQo8QPDQYmGzR-9" target="lZ2ELk1dQo8QPDQYmGzR-12" edge="1">
          <mxGeometry width="50" height="50" relative="1" as="geometry">
            <mxPoint x="135" y="700" as="sourcePoint" />
            <mxPoint x="730" y="480" as="targetPoint" />
          </mxGeometry>
        </mxCell>
        <mxCell id="lZ2ELk1dQo8QPDQYmGzR-26" value="" style="endArrow=none;html=1;rounded=0;entryX=1;entryY=0;entryDx=0;entryDy=0;exitX=0.5;exitY=1;exitDx=0;exitDy=0;" parent="1" source="lZ2ELk1dQo8QPDQYmGzR-12" target="lZ2ELk1dQo8QPDQYmGzR-10" edge="1">
          <mxGeometry width="50" height="50" relative="1" as="geometry">
            <mxPoint x="145" y="710" as="sourcePoint" />
            <mxPoint x="195" y="660" as="targetPoint" />
          </mxGeometry>
        </mxCell>
        <mxCell id="lZ2ELk1dQo8QPDQYmGzR-28" style="edgeStyle=orthogonalEdgeStyle;rounded=0;orthogonalLoop=1;jettySize=auto;html=1;exitX=0.5;exitY=1;exitDx=0;exitDy=0;" parent="1" source="lZ2ELk1dQo8QPDQYmGzR-8" target="lZ2ELk1dQo8QPDQYmGzR-8" edge="1">
          <mxGeometry relative="1" as="geometry" />
        </mxCell>
        <mxCell id="lZ2ELk1dQo8QPDQYmGzR-29" value="1,1" style="text;html=1;strokeColor=none;fillColor=none;align=center;verticalAlign=middle;whiteSpace=wrap;rounded=0;" parent="1" vertex="1">
          <mxGeometry x="570" y="270" width="60" height="30" as="geometry" />
        </mxCell>
        <mxCell id="lZ2ELk1dQo8QPDQYmGzR-30" value="1,N" style="text;html=1;strokeColor=none;fillColor=none;align=center;verticalAlign=middle;whiteSpace=wrap;rounded=0;" parent="1" vertex="1">
          <mxGeometry x="352.5" y="272.5" width="60" height="30" as="geometry" />
        </mxCell>
        <mxCell id="lZ2ELk1dQo8QPDQYmGzR-31" value="&lt;b&gt;1:N&lt;/b&gt;" style="text;html=1;strokeColor=none;fillColor=none;align=center;verticalAlign=middle;whiteSpace=wrap;rounded=0;" parent="1" vertex="1">
          <mxGeometry x="461.5" y="200" width="60" height="30" as="geometry" />
        </mxCell>
        <mxCell id="0AL0oECTRrQeg3kT7uwB-10" value="" style="endArrow=none;html=1;rounded=0;exitX=0.5;exitY=0;exitDx=0;exitDy=0;" edge="1" parent="1" source="ELVU8j1Wu9aHbOI0-rem-31">
          <mxGeometry width="50" height="50" relative="1" as="geometry">
            <mxPoint x="480" y="180" as="sourcePoint" />
            <mxPoint x="678" y="30" as="targetPoint" />
          </mxGeometry>
        </mxCell>
        <mxCell id="0AL0oECTRrQeg3kT7uwB-11" value="" style="endArrow=none;html=1;rounded=0;entryX=0.5;entryY=1;entryDx=0;entryDy=0;exitX=0.5;exitY=0;exitDx=0;exitDy=0;" edge="1" parent="1" source="lZ2ELk1dQo8QPDQYmGzR-3" target="ELVU8j1Wu9aHbOI0-rem-31">
          <mxGeometry width="50" height="50" relative="1" as="geometry">
            <mxPoint x="450" y="160" as="sourcePoint" />
            <mxPoint x="500" y="110" as="targetPoint" />
          </mxGeometry>
        </mxCell>
        <mxCell id="0AL0oECTRrQeg3kT7uwB-12" value="Elige" style="rhombus;whiteSpace=wrap;html=1;" vertex="1" parent="1">
          <mxGeometry x="106.5" y="90" width="85" height="80" as="geometry" />
        </mxCell>
        <mxCell id="0AL0oECTRrQeg3kT7uwB-13" value="" style="endArrow=none;html=1;rounded=0;entryX=0;entryY=0.5;entryDx=0;entryDy=0;exitX=1;exitY=0.25;exitDx=0;exitDy=0;" edge="1" parent="1" source="uSXimBow2SyvMB53U5gD-4" target="0AL0oECTRrQeg3kT7uwB-12">
          <mxGeometry width="50" height="50" relative="1" as="geometry">
            <mxPoint y="340" as="sourcePoint" />
            <mxPoint x="70" y="250" as="targetPoint" />
          </mxGeometry>
        </mxCell>
        <mxCell id="0AL0oECTRrQeg3kT7uwB-14" value="" style="endArrow=none;html=1;rounded=0;entryX=0;entryY=0.5;entryDx=0;entryDy=0;exitX=1;exitY=0.5;exitDx=0;exitDy=0;" edge="1" parent="1" source="0AL0oECTRrQeg3kT7uwB-12" target="uSXimBow2SyvMB53U5gD-2">
          <mxGeometry width="50" height="50" relative="1" as="geometry">
            <mxPoint x="190" y="240" as="sourcePoint" />
            <mxPoint x="240" y="190" as="targetPoint" />
          </mxGeometry>
        </mxCell>
        <mxCell id="0AL0oECTRrQeg3kT7uwB-15" value="1,1" style="text;html=1;strokeColor=none;fillColor=none;align=center;verticalAlign=middle;whiteSpace=wrap;rounded=0;" vertex="1" parent="1">
          <mxGeometry x="204" y="100" width="60" height="30" as="geometry" />
        </mxCell>
        <mxCell id="0AL0oECTRrQeg3kT7uwB-16" value="&lt;b&gt;1:N&lt;/b&gt;" style="text;html=1;strokeColor=none;fillColor=none;align=center;verticalAlign=middle;whiteSpace=wrap;rounded=0;" vertex="1" parent="1">
          <mxGeometry x="121.5" y="60" width="60" height="30" as="geometry" />
        </mxCell>
        <mxCell id="0AL0oECTRrQeg3kT7uwB-22" value="1,N" style="text;html=1;strokeColor=none;fillColor=none;align=center;verticalAlign=middle;whiteSpace=wrap;rounded=0;" vertex="1" parent="1">
          <mxGeometry x="-11" y="-25" width="60" height="30" as="geometry" />
        </mxCell>
        <mxCell id="0AL0oECTRrQeg3kT7uwB-23" value="1,1" style="text;html=1;strokeColor=none;fillColor=none;align=center;verticalAlign=middle;whiteSpace=wrap;rounded=0;" vertex="1" parent="1">
          <mxGeometry x="660" y="210" width="60" height="30" as="geometry" />
        </mxCell>
        <mxCell id="0AL0oECTRrQeg3kT7uwB-24" value="&lt;b&gt;1:1&lt;/b&gt;" style="text;html=1;strokeColor=none;fillColor=none;align=center;verticalAlign=middle;whiteSpace=wrap;rounded=0;" vertex="1" parent="1">
          <mxGeometry x="710" y="115" width="60" height="30" as="geometry" />
        </mxCell>
        <mxCell id="0AL0oECTRrQeg3kT7uwB-25" value="1,1" style="text;html=1;strokeColor=none;fillColor=none;align=center;verticalAlign=middle;whiteSpace=wrap;rounded=0;" vertex="1" parent="1">
          <mxGeometry x="660" y="30" width="60" height="30" as="geometry" />
        </mxCell>
      </root>
    </mxGraphModel>
  </diagram>
</mxfile>
